<svg version="1.1" xmlns="http://www.w3.org/2000/svg" xmlns:xlink="http://www.w3.org/1999/xlink" x="0px" y="0px" viewBox="0 0 142.38 105.89" style="enable-background:new 0 0 142.38 105.89;" xml:space="preserve">
																<linearGradient id="five-g-svg" gradientUnits="userSpaceOnUse" x1="0" y1="52.9436" x2="142.3828" y2="52.9436"><stop offset="1" style="stop-color: #0099C0"></stop><stop offset="2" style="stop-color: #00C070"></stop><stop offset="3" style="stop-color: #69DCC3"></stop><stop offset="4" style="stop-color: #F5DB5D"></stop><stop offset="5" style="stop-color: #FF8827"></stop><stop offset="6" style="stop-color: #1d1d1f"></stop></linearGradient>
																<path d="M47.34,59.25h4.78c0.32,2.69,2.52,4.46,5.43,4.46c3.29,0,5.51-2.35,5.51-5.87c0-3.42-2.22-5.71-5.37-5.71 c-2.44,0-4.32,1.13-5.29,3.02h-4.64l1.57-16.69h17.15v4.22H53.31l-0.79,8.4h0.34c1.27-1.77,3.37-2.77,6.28-2.77 c4.9,0,8.86,3.68,8.86,9.45c0,6.01-4.18,10.13-10.43,10.13C51.66,67.88,47.56,64.28,47.34,59.25z M84.7,67.88 c-8.29,0-13.44-5.79-13.44-15.08c0-9.19,5.21-15.06,13.36-15.06c6.6,0,11.44,3.76,12.35,9.61h-5.09c-1.03-3.32-3.59-5.15-7.25-5.15 c-5,0-8.13,4.06-8.13,10.57c0,6.61,3.19,10.67,8.29,10.67c4.36,0,7.33-2.73,7.41-6.79l0.02-0.6h-6.88v-3.92h11.87v3.58 C97.21,63.13,92.33,67.88,84.7,67.88z M120.83,104.69c13.9-13.83,21.56-32.21,21.55-51.76C142.38,33.38,134.71,15,120.8,1.18 c-1.57-1.56-4.1-1.55-5.66,0.02c-1.56,1.57-1.55,4.1,0.02,5.66c12.39,12.31,19.21,28.67,19.22,46.08c0,17.4-6.81,33.77-19.19,46.09 c-1.57,1.56-1.57,4.09-0.01,5.66c0.78,0.79,1.81,1.18,2.84,1.18C119.03,105.85,120.05,105.47,120.83,104.69z M27.24,104.71 c1.56-1.57,1.55-4.1-0.02-5.66C14.83,86.74,8,70.37,8,52.95c0-17.39,6.81-33.75,19.19-46.06c1.59-1.52,1.66-4.03,0.15-5.63 c-1.51-1.6-4.04-1.68-5.65-0.18l-0.11,0.11C7.66,15.01,0,33.4,0,52.95s7.66,37.94,21.58,51.77c0.78,0.78,1.8,1.16,2.82,1.16 C25.43,105.89,26.46,105.49,27.24,104.71z M42.01,90.03c1.56-1.57,1.55-4.1-0.02-5.66c-8.45-8.39-13.1-19.55-13.1-31.42 c0-11.87,4.65-23.02,13.05-31.37c0.02-0.02,0.06-0.06,0.09-0.09c1.56-1.56,1.59-4.12,0.03-5.69c-1.56-1.56-4.06-1.59-5.63-0.03 l-0.08,0.08c-9.97,9.91-15.46,23.08-15.46,37.09c0,14.01,5.49,27.19,15.46,37.09c0.78,0.78,1.8,1.16,2.82,1.16 C40.2,91.21,41.23,90.81,42.01,90.03z M106.06,90.01c9.96-9.91,15.44-23.08,15.43-37.08c-0.01-14-5.5-27.17-15.46-37.07 c-1.57-1.56-4.1-1.55-5.66,0.02c-1.56,1.57-1.55,4.1,0.02,5.66c8.44,8.39,13.09,19.54,13.1,31.4c0,11.86-4.64,23.01-13.07,31.41 c-1.57,1.56-1.57,4.09-0.01,5.66c0.78,0.79,1.81,1.18,2.83,1.18C104.26,91.17,105.28,90.79,106.06,90.01z" style="fill:url(#five-g-svg)"></path>
															</svg>