<svg version="1.1" xmlns="http://www.w3.org/2000/svg" xmlns:xlink="http://www.w3.org/1999/xlink" x="0px" y="0px" viewBox="0 0 105.44 105.44" style="enable-background:new 0 0 105.44 105.44;" xml:space="preserve">
												<linearGradient id="chip-svg" gradientUnits="userSpaceOnUse" x1="0" y1="52.7192" x2="105.4385" y2="52.7192"><stop offset="1" style="stop-color: #1E00FF"></stop><stop offset="2" style="stop-color: #702BFC"></stop><stop offset="3" style="stop-color: #F23BFF"></stop><stop offset="4" style="stop-color: FF7076"></stop><stop offset="5" style="stop-color: #1d1d1f"></stop></linearGradient>
												<path d="M85.68,105.44H19.76C8.87,105.44,0,96.57,0,85.68V19.76C0,8.87,8.87,0,19.76,0h65.91 c10.9,0,19.76,8.87,19.76,19.76v65.91C105.44,96.57,96.57,105.44,85.68,105.44z M19.76,8C13.28,8,8,13.28,8,19.76v65.91 c0,6.49,5.28,11.76,11.76,11.76h65.91c6.49,0,11.76-5.28,11.76-11.76V19.76C97.44,13.28,92.16,8,85.68,8H19.76z M38.84,58.88h-9.81 l-2.29,6.92h-4.82l9.46-26.77h5.36l9.48,26.77H41.1L38.84,58.88z M30.14,55.18h7.59l-3.62-11.13H33.8L30.14,55.18z M52.9,43.74 h-0.31l-6.63,4.71v-4.51l6.97-4.92h4.75V65.8H52.9V43.74z M63.27,58.41h4.45c0.29,2.5,2.35,4.16,5.06,4.16 c3.07,0,5.14-2.19,5.14-5.47c0-3.19-2.07-5.33-5.01-5.33c-2.27,0-4.03,1.06-4.93,2.82h-4.32l1.46-15.57H81.1v3.93H68.83l-0.74,7.83 h0.31c1.18-1.65,3.14-2.58,5.86-2.58c4.56,0,8.26,3.43,8.26,8.81c0,5.6-3.9,9.44-9.72,9.44C67.29,66.47,63.47,63.11,63.27,58.41z" style="fill:url(#chip-svg)"></path>
												</svg>