<svg version="1.1" xmlns="http://www.w3.org/2000/svg" xmlns:xlink="http://www.w3.org/1999/xlink" x="0px" y="0px" viewBox="0 0 109.64 109.64" style="enable-background:new 0 0 109.64 109.64;" xml:space="preserve">
												<linearGradient id="brightness-svg" gradientUnits="userSpaceOnUse" x1="0" y1="54.8184" x2="109.6367" y2="54.8184"><stop offset="1" style="stop-color: #ED186A"></stop><stop offset="2" style="stop-color: #FF6700"></stop><stop offset="3" style="stop-color: #FFCB39"></stop><stop offset="4" style="stop-color: #1d1d1f"></stop></linearGradient>
												<path d="M54.82,70.56c-8.68,0-15.75-7.06-15.75-15.75s7.06-15.75,15.75-15.75s15.75,7.06,15.75,15.75 S63.5,70.56,54.82,70.56z M54.82,47.07c-4.27,0-7.75,3.48-7.75,7.75s3.48,7.75,7.75,7.75s7.75-3.48,7.75-7.75 S59.09,47.07,54.82,47.07z M58.82,30.48V4c0-2.21-1.79-4-4-4s-4,1.79-4,4v26.48c0,2.21,1.79,4,4,4S58.82,32.69,58.82,30.48z M58.82,105.64V79.16c0-2.21-1.79-4-4-4s-4,1.79-4,4v26.48c0,2.21,1.79,4,4,4S58.82,107.85,58.82,105.64z M109.64,54.82 c0-2.21-1.79-4-4-4H79.16c-2.21,0-4,1.79-4,4s1.79,4,4,4h26.48C107.85,58.82,109.64,57.03,109.64,54.82z M34.48,54.82 c0-2.21-1.79-4-4-4H4c-2.21,0-4,1.79-4,4s1.79,4,4,4h26.48C32.69,58.82,34.48,57.03,34.48,54.82z M74.86,40.44l18.72-18.72 c1.56-1.56,1.56-4.09,0-5.66c-1.56-1.56-4.09-1.56-5.66,0L69.2,34.78c-1.56,1.56-1.56,4.09,0,5.66c0.78,0.78,1.8,1.17,2.83,1.17 S74.08,41.22,74.86,40.44z M21.71,93.58l18.72-18.72c1.56-1.56,1.56-4.09,0-5.66c-1.56-1.56-4.09-1.56-5.66,0L16.06,87.92 c-1.56,1.56-1.56,4.09,0,5.66c0.78,0.78,1.8,1.17,2.83,1.17S20.93,94.36,21.71,93.58z M40.44,40.44c1.56-1.56,1.56-4.09,0-5.66 L21.71,16.06c-1.56-1.56-4.09-1.56-5.66,0c-1.56,1.56-1.56,4.09,0,5.66l18.72,18.72c0.78,0.78,1.8,1.17,2.83,1.17 S39.65,41.22,40.44,40.44z M93.58,93.58c1.56-1.56,1.56-4.09,0-5.66L74.86,69.2c-1.56-1.56-4.09-1.56-5.66,0 c-1.56,1.56-1.56,4.09,0,5.66l18.72,18.72c0.78,0.78,1.8,1.17,2.83,1.17S92.8,94.36,93.58,93.58z" style="fill:url(#brightness-svg)"></path>
												</svg>