<svg version="1.1" xmlns="http://www.w3.org/2000/svg" xmlns:xlink="http://www.w3.org/1999/xlink" x="0px" y="0px" viewBox="0 0 107.45 68" style="enable-background:new 0 0 107.45 68;" xml:space="preserve">
																<linearGradient id="front-camera-svg" gradientUnits="userSpaceOnUse" x1="0" y1="34" x2="107.4531" y2="34"><stop offset="1" style="stop-color: #ED186A"></stop><stop offset="2" style="stop-color: #FF6700"></stop><stop offset="3" style="stop-color: #FFCB39"></stop><stop offset="4" style="stop-color: #1d1d1f"></stop></linearGradient>
																<path d="M102.67,5.16c-2.63-1.39-5.69-1.21-8.18,0.48L77.89,16.96v-2.59C77.89,6.45,72.15,0,65.1,0H12.78 C5.73,0,0,6.45,0,14.37v39.26C0,61.55,5.73,68,12.78,68H65.1c7.05,0,12.78-6.45,12.78-14.37v-2.59l16.61,11.32 c2.49,1.69,5.54,1.88,8.18,0.48c2.95-1.56,4.78-4.76,4.78-8.36V13.52C107.45,9.92,105.62,6.72,102.67,5.16z M69.89,53.63 c0,3.45-2.19,6.37-4.78,6.37H12.78C10.19,60,8,57.08,8,53.63V14.37C8,10.92,10.19,8,12.78,8H65.1c2.59,0,4.78,2.92,4.78,6.37v10.16 c0,0.12,0.01,0.24,0.03,0.36c0,0.04-0.01,0.07-0.01,0.1v18c0,0.04,0.01,0.07,0.01,0.1c-0.01,0.12-0.03,0.24-0.03,0.36V53.63z M99.45,54.48c0,0.72-0.3,1.13-0.47,1.26L77.9,41.36V26.64l21.08-14.37c0.17,0.13,0.47,0.53,0.47,1.26V54.48z" style="fill:url(#front-camera-svg)"></path>
															</svg>