<svg version="1.1" xmlns="http://www.w3.org/2000/svg" xmlns:xlink="http://www.w3.org/1999/xlink" x="0px" y="0px" viewBox="0 0 105.21 106.21" style="enable-background:new 0 0 105.21 106.21;" xml:space="preserve"> <linearGradient id="center-stage-svg" gradientUnits="userSpaceOnUse" x1="7.289983e-05" y1="53.1052" x2="105.211" y2="53.1052"><stop offset="1" style="stop-color: #ED186A"></stop><stop offset="2" style="stop-color: #FF6700"></stop><stop offset="3" style="stop-color: #FFCB39"></stop><stop offset="4" style="stop-color: #1d1d1f"></stop></linearGradient>
																<path d="M52.61,26.16c4.41,0,8,3.59,8,8s-3.59,8-8,8s-8-3.59-8-8S48.19,26.16,52.61,26.16 M52.61,18.16 c-8.84,0-16,7.16-16,16s7.16,16,16,16s16-7.16,16-16S61.44,18.16,52.61,18.16L52.61,18.16z M78.21,86.17H27c-2.21,0-4-1.79-4-4 c0-16.32,13.28-29.6,29.6-29.6c16.32,0,29.6,13.28,29.6,29.6C82.21,84.37,80.41,86.17,78.21,86.17z M31.38,78.17h42.46 c-1.88-10.01-10.69-17.6-21.23-17.6C42.06,60.56,33.26,68.16,31.38,78.17z M41.21,101.5c0-2.21-1.79-4-4-4h-18 C13.03,97.5,8,92.69,8,86.79V69.71c0-2.21-1.79-4-4-4s-4,1.79-4,4v17.08c0,10.32,8.62,18.71,19.21,18.71h18 C39.42,105.5,41.21,103.71,41.21,101.5z M8.71,37.21v-18C8.71,13.03,13.52,8,19.42,8H36.5c2.21,0,4-1.79,4-4s-1.79-4-4-4H19.42 C9.11,0,0.71,8.62,0.71,19.21v18c0,2.21,1.79,4,4,4S8.71,39.42,8.71,37.21z M105.21,87V69c0-2.21-1.79-4-4-4s-4,1.79-4,4v18 c0,6.18-4.8,11.21-10.71,11.21H69.42c-2.21,0-4,1.79-4,4s1.79,4,4,4H86.5C96.82,106.21,105.21,97.59,105.21,87z M105.21,36.5V19.42 c0-10.32-8.62-18.71-19.21-18.71H68c-2.21,0-4,1.79-4,4s1.79,4,4,4h18c6.18,0,11.21,4.8,11.21,10.71V36.5c0,2.21,1.79,4,4,4 S105.21,38.71,105.21,36.5z" style="fill:url(#center-stage-svg)"></path>
															</svg>