<svg version="1.1" xmlns="http://www.w3.org/2000/svg" xmlns:xlink="http://www.w3.org/1999/xlink" x="0px" y="0px" viewBox="0 0 109.67 101.17" style="enable-background:new 0 0 109.67 101.17;" xml:space="preserve">
												<linearGradient id="color-svg" gradientUnits="userSpaceOnUse" x1="0" y1="50.5833" x2="109.6699" y2="50.5833"><stop offset="1" style="stop-color: #ED186A"></stop><stop offset="2" style="stop-color: #FF6700"></stop><stop offset="3" style="stop-color: #FFCB39"></stop><stop offset="4" style="stop-color: #1d1d1f"></stop></linearGradient>
												<path d="M89.97,34.44C89.59,15.39,73.98,0,54.83,0C35.69,0,20.08,15.39,19.7,34.44C8.04,40.18,0,52.17,0,66.01 c0,19.39,15.77,35.16,35.16,35.16c7.29,0,14.06-2.23,19.68-6.04c5.62,3.81,12.39,6.04,19.68,6.04c19.39,0,35.16-15.77,35.16-35.16 C109.67,52.17,101.63,40.18,89.97,34.44z M69.4,58.06c-1.38-5.94-4.26-11.32-8.23-15.69c3.95-2.24,8.5-3.52,13.35-3.52 c2.45,0,4.82,0.33,7.07,0.94C80.26,47.46,75.72,54.03,69.4,58.06z M54.83,84.7c-3.86-4.06-6.47-9.31-7.24-15.14 c2.34,0.49,4.76,0.75,7.24,0.75s4.9-0.26,7.24-0.75C61.31,75.39,58.69,80.63,54.83,84.7z M28.08,39.79 c2.26-0.61,4.63-0.94,7.07-0.94c4.85,0,9.41,1.28,13.35,3.52c-3.97,4.37-6.85,9.74-8.23,15.69C33.95,54.03,29.41,47.46,28.08,39.79z M54.83,62.31c-2.45,0-4.82-0.33-7.07-0.94c0.93-5.39,3.46-10.24,7.07-14.05c3.62,3.81,6.14,8.66,7.07,14.05 C59.65,61.98,57.28,62.31,54.83,62.31z M54.83,8c13.77,0,25.17,10.3,26.92,23.61c-2.34-0.49-4.76-0.75-7.24-0.75 c-7.28,0-14.06,2.23-19.68,6.04c-5.62-3.81-12.39-6.04-19.68-6.04c-2.48,0-4.9,0.26-7.24,0.75C29.66,18.3,41.06,8,54.83,8z M8,66.01 c0-9.62,5.03-18.08,12.6-22.9c2.41,10.38,9.43,19.02,18.78,23.62c0.18,8.81,3.6,16.84,9.13,22.92c-3.95,2.24-8.5,3.52-13.35,3.52 C20.18,93.17,8,80.98,8,66.01z M74.51,93.17c-4.85,0-9.4-1.28-13.35-3.52c5.53-6.08,8.96-14.11,9.13-22.92 c9.35-4.6,16.37-13.23,18.78-23.62c7.56,4.83,12.6,13.29,12.6,22.9C101.67,80.98,89.49,93.17,74.51,93.17z" style="fill:url(#color-svg)"></path>
												</svg>