<svg version="1.1" xmlns="http://www.w3.org/2000/svg" xmlns:xlink="http://www.w3.org/1999/xlink" x="0px" y="0px" viewBox="0 0 114.13 103.24" style="enable-background:new 0 0 114.13 103.24;" xml:space="preserve">
												<linearGradient id="gpu-svg" gradientUnits="userSpaceOnUse" x1="0" y1="51.6187" x2="114.1348" y2="51.6187"><stop offset="1" style="stop-color: #1E00FF"></stop><stop offset="2" style="stop-color: #702BFC"></stop><stop offset="3" style="stop-color: #F23BFF"></stop><stop offset="4" style="stop-color: FF7076"></stop><stop offset="5" style="stop-color: #1d1d1f"></stop></linearGradient>
												<path d="M100.5,56.17c0,13.07-5.82,25.31-15.96,33.58c-1.29,1.05-3.18,0.85-4.22-0.43c-1.05-1.28-0.85-3.17,0.43-4.22 c8.06-6.57,12.93-16.04,13.65-26.3h-9.61c-1.66,0-3-1.34-3-3s1.34-3,3-3h9.55c-0.72-7.96-3.95-15.21-8.89-20.95 c-0.06,0.07-0.11,0.15-0.18,0.22l-6,6c-0.59,0.59-1.35,0.88-2.12,0.88s-1.54-0.29-2.12-0.88c-1.17-1.17-1.17-3.07,0-4.24l6-6 c0.06-0.06,0.14-0.11,0.2-0.17c-5.92-5-13.4-8.19-21.6-8.72c0.24,0.43,0.39,0.92,0.39,1.44v8.07c0,1.66-1.34,3-3,3s-3-1.34-3-3 v-8.07c0-0.51,0.14-0.99,0.37-1.42c-8.05,0.6-15.39,3.76-21.21,8.67L39.53,34c1.17,1.17,1.17,3.07,0,4.24 c-0.59,0.59-1.35,0.88-2.12,0.88s-1.54-0.29-2.12-0.88l-6.38-6.38c-4.93,5.73-8.15,12.97-8.87,20.93h8.74c1.66,0,3,1.34,3,3 s-1.34,3-3,3h-8.8c0.74,10.69,5.94,20.43,14.56,27.02c1.32,1.01,1.57,2.89,0.56,4.21c-0.59,0.77-1.48,1.18-2.38,1.18 c-0.64,0-1.28-0.2-1.82-0.62c-10.81-8.27-17.01-20.82-17.01-34.41c0-23.88,19.43-43.31,43.31-43.31 C81.07,12.86,100.5,32.29,100.5,56.17z M80.5,75.38c-0.79,1.04-1.98,1.59-3.19,1.59c-0.85,0-1.69-0.27-2.42-0.81l-11.61-8.79 c-1.81,1.11-3.94,1.74-6.21,1.74c-6.64,0-12.04-5.4-12.04-12.04c0-6.63,5.4-12.03,12.04-12.03c6.63,0,12.03,5.4,12.03,12.03 c0,1.45-0.26,2.83-0.72,4.12l11.34,8.59C81.48,71.11,81.83,73.62,80.5,75.38z M57.63,63.08c3.02-0.28,5.41-2.8,5.46-5.89 c0.01-0.04,0.01-0.08,0.01-0.12c0-3.33-2.71-6.03-6.03-6.03c-3.33,0-6.04,2.7-6.04,6.03s2.71,6.04,6.04,6.04 C57.26,63.11,57.45,63.1,57.63,63.08z M28.03,101.67c1.34-1.75,1.01-4.27-0.75-5.61C15.03,86.69,8,72.47,8,57.07 C8,30.01,30.01,8,57.07,8s49.07,22.01,49.07,49.07c0,14.81-6.59,28.68-18.09,38.05c-1.71,1.4-1.97,3.92-0.57,5.63 c1.4,1.71,3.92,1.97,5.63,0.57c13.37-10.9,21.03-27.03,21.03-44.25C114.13,25.6,88.53,0,57.07,0S0,25.6,0,57.07 c0,17.92,8.17,34.45,22.42,45.35c0.73,0.56,1.58,0.82,2.43,0.82C26.05,103.24,27.24,102.7,28.03,101.67z" style="fill:url(#gpu-svg)"></path>
												</svg>