<svg version="1.1" xmlns="http://www.w3.org/2000/svg" xmlns:xlink="http://www.w3.org/1999/xlink" x="0px" y="0px" viewBox="0 0 112.79 112.79" style="enable-background:new 0 0 112.79 112.79;" xml:space="preserve">
													<linearGradient id="true-tone-design-svg" gradientUnits="userSpaceOnUse" x1="0" y1="56.395" x2="112.79" y2="56.395"><stop offset="1" style="stop-color: #ED186A"></stop><stop offset="2" style="stop-color: #FF6700"></stop><stop offset="3" style="stop-color: #FFCB39"></stop><stop offset="4" style="stop-color: #1d1d1f"></stop></linearGradient>
													<path d="M56.39,24.96c-17.33,0-31.43,14.1-31.43,31.43s14.1,31.43,31.43,31.43s31.43-14.1,31.43-31.43 S73.73,24.96,56.39,24.96z M35.91,71.45c-0.48-0.64-0.92-1.31-1.33-2h43.63c-0.41,0.69-0.86,1.36-1.33,2H35.91z M31.49,61.55 c-0.27-1.3-0.44-2.64-0.5-4H81.8c-0.06,1.36-0.23,2.7-0.5,4H31.49z M31.32,52.16c0.42-2.47,1.19-4.82,2.26-7H79.2 c1.08,2.18,1.85,4.53,2.26,7H31.32z M56.39,30.96c8.98,0,16.88,4.68,21.41,11.73H34.98C39.51,35.65,47.41,30.96,56.39,30.96z M56.39,20c2.21,0,4-1.79,4-4V4c0-2.21-1.79-4-4-4s-4,1.79-4,4v12C52.39,18.21,54.19,20,56.39,20z M56.39,92.79c-2.21,0-4,1.79-4,4 v12c0,2.21,1.79,4,4,4s4-1.79,4-4v-12C60.39,94.58,58.6,92.79,56.39,92.79z M108.79,52.39h-12c-2.21,0-4,1.79-4,4s1.79,4,4,4h12 c2.21,0,4-1.79,4-4S111,52.39,108.79,52.39z M20,56.39c0-2.21-1.79-4-4-4H4c-2.21,0-4,1.79-4,4s1.79,4,4,4h12 C18.21,60.39,20,58.6,20,56.39z M84.96,31.83c1.02,0,2.05-0.39,2.83-1.17l8.49-8.49c1.56-1.56,1.56-4.09,0-5.66 c-1.56-1.56-4.09-1.56-5.66,0L82.13,25c-1.56,1.56-1.56,4.09,0,5.66C82.91,31.44,83.93,31.83,84.96,31.83z M25,82.13l-8.49,8.49 c-1.56,1.56-1.56,4.09,0,5.66c0.78,0.78,1.8,1.17,2.83,1.17s2.05-0.39,2.83-1.17l8.49-8.49c1.56-1.56,1.56-4.09,0-5.66 C29.1,80.57,26.57,80.57,25,82.13z M25,30.66c0.78,0.78,1.8,1.17,2.83,1.17s2.05-0.39,2.83-1.17c1.56-1.56,1.56-4.09,0-5.66 l-8.49-8.49c-1.56-1.56-4.09-1.56-5.66,0c-1.56,1.56-1.56,4.09,0,5.66L25,30.66z M87.79,82.13c-1.56-1.56-4.09-1.56-5.66,0 c-1.56,1.56-1.56,4.09,0,5.66l8.49,8.49c0.78,0.78,1.8,1.17,2.83,1.17s2.05-0.39,2.83-1.17c1.56-1.56,1.56-4.09,0-5.66L87.79,82.13z" style="fill: url(#true-tone-design-svg)"></path>
												</svg>