<svg version="1.1" xmlns="http://www.w3.org/2000/svg" xmlns:xlink="http://www.w3.org/1999/xlink" x="0px" y="0px" viewBox="0 0 108.71 108.71" style="enable-background:new 0 0 108.71 108.71;" xml:space="preserve">
															<linearGradient id="true-tone-svg" gradientUnits="userSpaceOnUse" x1="9.662829e-05" y1="54.3548" x2="108.7101" y2="54.3548"><stop offset="1" style="stop-color: #ED186A"></stop><stop offset="2" style="stop-color: #FF6700"></stop><stop offset="3" style="stop-color: #FFCB39"></stop><stop offset="4" style="stop-color: #1d1d1f"></stop></linearGradient>
															<path d="M57.94,31.52L57.94,31.52L57.94,31.52 M53.89,39.07l4.38,7.88c0.78,1.4,1.93,2.54,3.32,3.32l7.88,4.38 l-7.51,4.04c-1.44,0.77-2.62,1.95-3.39,3.39l-4.04,7.52l-4.39-7.88c-0.78-1.39-1.92-2.54-3.32-3.32l-7.88-4.38l7.51-4.04 c1.44-0.77,2.62-1.95,3.39-3.39L53.89,39.07 M53.77,26.03c-1.14,0-2.26,0.57-2.87,1.71L42.8,42.8c-0.03,0.05-0.07,0.1-0.13,0.13 l-15.06,8.09c-2.31,1.24-2.26,4.59,0.08,5.89l15.23,8.48c0.09,0.05,0.17,0.13,0.22,0.22l8.48,15.23c0.66,1.19,1.85,1.79,3.02,1.79 c1.14,0,2.26-0.57,2.87-1.71l8.09-15.06c0.03-0.05,0.07-0.1,0.13-0.13l15.06-8.09c2.31-1.24,2.26-4.59-0.08-5.89l-15.23-8.48 c-0.09-0.05-0.17-0.13-0.22-0.22l-8.48-15.23C56.12,26.63,54.94,26.03,53.77,26.03L53.77,26.03z M58.08,104.71V93.16 c0-2.21-1.79-4-4-4s-4,1.79-4,4v11.55c0,2.21,1.79,4,4,4S58.08,106.92,58.08,104.71z M58.08,15.55V4c0-2.21-1.79-4-4-4s-4,1.79-4,4 v11.55c0,2.21,1.79,4,4,4S58.08,17.76,58.08,15.55z M108.71,54.33c0-2.21-1.79-4-4-4H93.16c-2.21,0-4,1.79-4,4c0,2.21,1.79,4,4,4 h11.55C106.92,58.33,108.71,56.54,108.71,54.33z M79.7,35.07l4.62-5.1c1.48-1.64,1.36-4.17-0.28-5.65 c-1.64-1.48-4.17-1.36-5.65,0.28l-4.62,5.1c-1.48,1.64-1.36,4.17,0.28,5.65c0.77,0.69,1.73,1.04,2.68,1.04 C77.82,36.39,78.91,35.94,79.7,35.07z M19.55,54.33c0-2.21-1.79-4-4-4H4c-2.21,0-4,1.79-4,4c0,2.21,1.79,4,4,4h11.55 C17.76,58.33,19.55,56.54,19.55,54.33z M30.79,84.61l4.62-5.1c1.48-1.64,1.36-4.17-0.28-5.65c-1.64-1.48-4.17-1.36-5.65,0.28 l-4.62,5.1c-1.48,1.64-1.36,4.17,0.28,5.65c0.77,0.69,1.73,1.04,2.68,1.04C28.92,85.92,30,85.48,30.79,84.61z M34.11,35.35 c1.64-1.48,1.76-4.01,0.28-5.65l-4.62-5.1c-1.48-1.64-4.01-1.76-5.65-0.28c-1.64,1.48-1.76,4.01-0.28,5.65l4.62,5.1 c0.79,0.87,1.88,1.31,2.97,1.31C32.38,36.39,33.34,36.04,34.11,35.35z M84.17,84.89c1.64-1.48,1.76-4.01,0.28-5.65l-4.62-5.1 c-1.49-1.64-4.01-1.76-5.65-0.28c-1.64,1.48-1.76,4.01-0.28,5.65l4.62,5.1c0.79,0.87,1.88,1.31,2.97,1.31 C82.44,85.92,83.4,85.58,84.17,84.89z" style="fill:url(#true-tone-svg)"></path>
															</svg>