<svg version="1.1" xmlns="http://www.w3.org/2000/svg" xmlns:xlink="http://www.w3.org/1999/xlink" x="0px" y="0px" viewBox="0 0 115.29 106.56" style="enable-background:new 0 0 115.29 106.56;" xml:space="preserve">
															<linearGradient id="lte-svg" gradientUnits="userSpaceOnUse" x1="0" y1="53.2798" x2="115.2949" y2="53.2798"><stop offset="1" style="stop-color: #0099C0"></stop><stop offset="2" style="stop-color: #00C070"></stop><stop offset="3" style="stop-color: #69DCC3"></stop><stop offset="4" style="stop-color: #F5DB5D"></stop><stop offset="5" style="stop-color: #FF8827"></stop><stop offset="6" style="stop-color: #1d1d1f"></stop></linearGradient>
															<path d="M68.1,40.2c0,4.35-2.65,8.07-6.42,9.65v52.71c0,2.21-1.79,4-4,4s-4-1.79-4-4V49.87 c-3.8-1.56-6.49-5.3-6.49-9.67c0-5.77,4.68-10.46,10.46-10.46S68.1,34.43,68.1,40.2z M83.15,16.13c-1.56-1.57-4.09-1.58-5.66-0.02 s-1.58,4.09-0.02,5.66c4.9,4.93,7.6,11.48,7.6,18.44c0,7.05-2.76,13.66-7.78,18.61c-1.57,1.55-1.59,4.09-0.03,5.66 c0.78,0.79,1.81,1.19,2.85,1.19c1.02,0,2.03-0.38,2.81-1.15c6.55-6.47,10.15-15.1,10.15-24.3C93.07,31.12,89.55,22.57,83.15,16.13z M99.67,1.24c-1.53-1.6-4.06-1.65-5.66-0.13c-1.6,1.53-1.65,4.06-0.13,5.66c8.65,9.04,13.41,20.92,13.41,33.44 c0,12.59-4.81,24.51-13.54,33.57c-1.53,1.59-1.49,4.12,0.1,5.66c0.78,0.75,1.78,1.12,2.78,1.12c1.05,0,2.09-0.41,2.88-1.22 c10.18-10.56,15.78-24.45,15.78-39.12C115.29,25.61,109.74,11.77,99.67,1.24z M30.22,40.2c0-6.96,2.7-13.5,7.6-18.44 c1.56-1.57,1.55-4.1-0.02-5.66c-1.57-1.56-4.1-1.55-5.66,0.02c-6.4,6.44-9.92,14.99-9.92,24.07c0,9.2,3.61,17.83,10.15,24.3 c0.78,0.77,1.8,1.15,2.81,1.15c1.03,0,2.06-0.4,2.85-1.19c1.55-1.57,1.54-4.1-0.03-5.66C32.99,53.86,30.22,47.25,30.22,40.2z M8,40.2c0-12.52,4.76-24.39,13.41-33.44c1.53-1.6,1.47-4.13-0.13-5.66c-1.6-1.53-4.13-1.47-5.66,0.13C5.55,11.77,0,25.61,0,40.2 c0,14.67,5.6,28.56,15.78,39.12c0.79,0.81,1.83,1.22,2.88,1.22c1,0,2-0.37,2.78-1.12c1.59-1.53,1.64-4.07,0.1-5.66 C12.81,64.71,8,52.79,8,40.2z" style="fill:url(#lte-svg)"></path>
															</svg>